<?xml version="1.0" standalone="no"?>
<!DOCTYPE svg PUBLIC "-//W3C//DTD SVG 20010904//EN"
 "http://www.w3.org/TR/2001/REC-SVG-20010904/DTD/svg10.dtd">
<svg version="1.0" xmlns="http://www.w3.org/2000/svg"
 width="2025.000000pt" height="588.000000pt" viewBox="0 0 2025.000000 588.000000"
 preserveAspectRatio="xMidYMid meet">
<metadata>
Created by potrace 1.16, written by Peter Selinger 2001-2019
</metadata>
<g transform="translate(0.000000,588.000000) scale(0.100000,-0.100000)"
fill="#000000" stroke="none">
<path d="M16715 5835 c-27 -24 -54 -44 -59 -45 -5 0 -34 -27 -63 -60 -30 -33
-60 -60 -66 -60 -7 0 -23 -16 -36 -35 -13 -19 -42 -52 -65 -73 -87 -81 -291
-365 -463 -647 -126 -207 -225 -358 -247 -381 -9 -8 -37 -46 -63 -82 -27 -37
-64 -83 -83 -103 -19 -20 -49 -52 -66 -70 -54 -60 -162 -140 -238 -175 -104
-48 -194 -62 -293 -45 -147 24 -253 90 -487 300 -266 239 -432 372 -615 493
-74 48 -139 88 -144 88 -6 0 -18 7 -27 15 -15 13 -127 71 -310 158 -172 83
-458 161 -700 193 -158 20 -534 15 -680 -10 -338 -59 -640 -170 -950 -349 -58
-33 -118 -67 -135 -75 -16 -8 -53 -32 -81 -53 -28 -22 -54 -39 -58 -39 -6 0
-91 -60 -135 -96 -9 -7 -52 -41 -96 -75 -166 -129 -428 -372 -597 -554 -382
-410 -471 -503 -580 -602 -158 -144 -236 -206 -381 -304 -133 -90 -202 -126
-328 -175 -258 -98 -571 -99 -831 -3 -84 31 -250 107 -258 119 -5 6 -99 62
-151 88 -14 8 -41 27 -60 43 -19 16 -38 29 -43 29 -13 0 -226 163 -430 330
-276 224 -495 392 -635 485 -70 47 -131 85 -136 85 -5 0 -16 7 -25 15 -9 8
-63 38 -120 66 -58 28 -107 55 -110 59 -11 14 -240 109 -347 144 -217 70 -510
116 -732 116 -379 0 -819 -100 -1161 -262 -341 -163 -431 -210 -621 -330 -183
-115 -587 -408 -689 -499 -30 -27 -59 -49 -65 -49 -5 0 -31 -20 -57 -45 -26
-24 -64 -55 -85 -68 -21 -13 -52 -38 -70 -54 -17 -16 -44 -38 -59 -48 -15 -10
-75 -55 -133 -100 -121 -94 -278 -200 -399 -269 -103 -58 -241 -126 -259 -126
-7 0 -13 -3 -13 -8 0 -4 -24 -16 -53 -26 -187 -67 -405 -92 -541 -61 -75 16
-216 69 -226 85 -3 4 -45 29 -95 55 -49 26 -101 55 -115 64 -14 9 -53 32 -87
50 l-63 32 0 -396 0 -397 60 -72 c69 -85 138 -150 230 -214 36 -26 67 -50 70
-54 8 -10 145 -72 205 -93 146 -49 419 -72 538 -46 23 5 82 17 132 26 163 31
279 73 525 193 135 66 511 294 530 321 3 4 32 27 65 52 33 24 85 64 116 89 31
25 85 67 120 95 69 53 188 153 204 171 28 31 281 225 455 349 30 22 57 42 60
46 3 3 64 44 135 91 183 120 300 186 578 330 29 14 106 47 172 73 66 26 136
53 155 60 60 25 260 73 395 96 245 43 568 25 779 -42 32 -11 63 -19 68 -19 31
0 403 -168 418 -189 3 -4 34 -25 70 -46 84 -50 238 -155 325 -222 115 -89 152
-118 160 -128 12 -13 157 -134 243 -202 188 -150 237 -190 256 -210 28 -29
114 -93 125 -93 5 0 14 -7 21 -15 17 -21 258 -183 355 -239 74 -42 232 -122
315 -159 117 -51 339 -104 494 -118 463 -40 908 132 1425 550 129 104 484 459
611 611 125 148 489 517 614 621 238 199 422 326 601 416 28 14 52 29 55 34
12 18 264 122 395 163 460 143 969 102 1415 -114 336 -162 588 -352 989 -749
74 -73 165 -157 201 -186 61 -49 234 -155 252 -155 4 0 31 -11 60 -24 70 -32
200 -56 303 -56 91 0 230 23 285 47 212 93 322 166 465 308 183 181 262 277
400 485 96 144 99 150 159 256 22 38 43 71 47 74 7 5 109 190 109 198 0 15
114 191 171 262 72 91 296 317 394 397 88 72 258 184 361 237 49 25 95 51 103
58 38 31 313 119 450 143 112 20 408 20 521 0 151 -27 404 -111 450 -150 8 -7
43 -27 77 -44 166 -83 353 -228 557 -433 153 -155 217 -228 340 -390 32 -43
60 -78 62 -78 2 0 4 209 4 464 l0 465 -51 61 c-79 95 -295 315 -394 402 l-89
78 -1476 0 -1475 0 -50 -45z"/>
<path d="M5 755 c0 -418 1 -588 2 -377 2 211 2 553 0 760 -1 207 -2 35 -2
-383z"/>
</g>
</svg>
